<svg width="343" height="89" viewBox="0 0 343 89" fill="none" xmlns="http://www.w3.org/2000/svg">
<g clip-path="url(#clip0_779_114)">
<mask id="mask0_779_114" style="mask-type:luminance" maskUnits="userSpaceOnUse" x="137" y="56" width="9" height="7">
<path d="M137.639 56.4941H145.906V62.752H137.639V56.4941Z" fill="white"/>
</mask>
<g mask="url(#mask0_779_114)">
<path d="M137.639 56.5791H145.782V62.6189H137.639V56.5791Z" fill="black"/>
</g>
<mask id="mask1_779_114" style="mask-type:luminance" maskUnits="userSpaceOnUse" x="137" y="29" width="9" height="13">
<path d="M137.639 29.377H145.906V41.5449H137.639V29.377Z" fill="white"/>
</mask>
<g mask="url(#mask1_779_114)">
<path d="M137.639 29.4014H145.782V41.481H137.639V29.4014Z" fill="black"/>
</g>
<path d="M183.786 65.6396H186.5V68.6592H183.786V65.6396Z" fill="black"/>
<path d="M194.644 65.6396H197.358V68.6592H194.644V65.6396Z" fill="black"/>
<path d="M197.358 20.3418H200.072V26.3816H197.358V20.3418Z" fill="black"/>
<path d="M205.502 65.6396H208.216V68.6592H205.502V65.6396Z" fill="black"/>
<path d="M191.93 20.3418H194.644V26.3816H191.93V20.3418Z" fill="black"/>
<path d="M175.642 20.3418H178.356V26.3816H175.642V20.3418Z" fill="black"/>
<path d="M181.072 20.3418H183.786V26.3816H181.072V20.3418Z" fill="black"/>
<path d="M186.5 20.3418H189.214V26.3816H186.5V20.3418Z" fill="black"/>
<path d="M175.642 47.5195V53.5594H200.073H200.075L200.073 47.5195H175.642Z" fill="black"/>
<mask id="mask2_779_114" style="mask-type:luminance" maskUnits="userSpaceOnUse" x="208" y="50" width="9" height="4">
<path d="M208.094 50.4102H216.36V53.7129H208.094V50.4102Z" fill="white"/>
</mask>
<g mask="url(#mask2_779_114)">
<path d="M208.217 50.5391H216.36V53.5586H208.217V50.5391Z" fill="black"/>
</g>
<mask id="mask3_779_114" style="mask-type:luminance" maskUnits="userSpaceOnUse" x="142" y="20" width="75" height="49">
<path d="M142.938 20.3379H216.359V68.6621H142.938V20.3379Z" fill="white"/>
</mask>
<g mask="url(#mask3_779_114)">
<path d="M210.931 32.4205C207.937 32.4205 205.502 29.7112 205.502 26.3807L205.503 20.3408H202.789V29.4002L172.928 29.4009V20.3408H143.068V26.3807H148.497V44.5005H143.068V53.5599H148.497V65.6396H143.068V68.6591H151.212V62.6193H153.926V68.6591H156.64V62.6193H159.354V68.6591H162.068V62.6193H164.783V68.6591H167.497V62.6193H170.211V68.6591H172.925V62.6193H175.64V68.6591H181.069V62.6193H189.212V68.6591H191.926V62.6193H200.069V68.6591H202.784V62.6193H210.927V68.6591H216.356V56.5795H205.498L205.501 35.4402H216.36L216.359 32.4207L210.931 32.4205ZM160.714 58.0897C158.465 58.0897 156.642 56.0615 156.642 53.5599C156.642 51.0584 158.465 49.0301 160.714 49.0301C162.963 49.0301 164.786 51.0584 164.786 53.5599C164.786 56.0615 162.963 58.0897 160.714 58.0897ZM168.857 42.9905H152.571V36.9506H168.859L168.857 42.9905ZM168.857 30.9108H152.571V24.871H168.859L168.857 30.9108ZM202.789 53.5606C202.789 55.2256 201.571 56.5802 200.074 56.5802V59.5997H197.36V56.5802H194.646V59.5997H191.932V56.5802H189.218V59.5997H186.503V56.5802H183.789V59.5997H181.075V56.5802H178.361V59.5997H175.646V56.5802C174.15 56.5802 172.932 55.2255 172.932 53.5606V47.5208C172.932 45.8558 174.15 44.5012 175.646 44.5012V41.4816H178.361V44.5012H181.075V41.4816H183.789V44.5012H186.503V41.4816H189.218V44.5012H191.932V41.4816H194.646V44.5012H197.36V41.4816H200.074V44.5012C201.571 44.5012 202.789 45.8559 202.789 47.5208V53.5606ZM202.789 36.9512H175.082L171.97 33.4888L173.89 31.3534L176.207 33.9316H202.789V36.9512Z" fill="black"/>
</g>
<mask id="mask4_779_114" style="mask-type:luminance" maskUnits="userSpaceOnUse" x="208" y="44" width="9" height="4">
<path d="M208.094 44.5H216.36V47.6289H208.094V44.5Z" fill="white"/>
</mask>
<g mask="url(#mask4_779_114)">
<path d="M208.217 44.5H216.36V47.5196H208.217V44.5Z" fill="black"/>
</g>
<mask id="mask5_779_114" style="mask-type:luminance" maskUnits="userSpaceOnUse" x="208" y="38" width="9" height="4">
<path d="M208.094 38.416H216.36V41.5449H208.094V38.416Z" fill="white"/>
</mask>
<g mask="url(#mask5_779_114)">
<path d="M208.217 38.459H216.36V41.4786H208.217V38.459Z" fill="black"/>
</g>
<path fill-rule="evenodd" clip-rule="evenodd" d="M297 65.3291H296.995C293.948 65.3291 291.473 67.9444 291.473 71.1632C291.473 74.3849 293.948 77.0002 296.995 77.0002C300.044 77.0002 302.519 74.3849 302.519 71.1632V50.3984L319.079 48.2117L319.088 59.4863C316.038 59.4863 313.563 62.1015 313.563 65.3233C313.563 68.545 316.038 71.1603 319.088 71.1603C322.134 71.1603 324.61 68.545 324.61 65.3233L324.596 44.9054C324.596 44.0716 324.256 43.2756 323.663 42.7216C323.07 42.1706 322.281 41.9111 321.494 42.0161L299.418 44.9316C298.038 45.1124 297 46.3545 297 47.8239V65.3291Z" fill="black"/>
<path fill-rule="evenodd" clip-rule="evenodd" d="M288.526 39.0396C293.524 33.7333 300.442 30.4474 308.08 30.4474C315.683 30.4474 322.57 33.7041 327.562 38.9638C328.641 40.1009 330.391 40.1009 331.464 38.9609C332.541 37.8209 332.538 35.9724 331.462 34.8383C325.471 28.5231 317.203 24.6162 308.08 24.6162C298.913 24.6162 290.612 28.5581 284.616 34.9257C283.539 36.0657 283.545 37.9142 284.624 39.0484C285.703 40.1825 287.453 40.1796 288.526 39.0396Z" fill="black"/>
<path fill-rule="evenodd" clip-rule="evenodd" d="M277.554 24.7355C285.755 17.3153 296.407 12.8312 308.041 12.8312C319.64 12.8312 330.261 17.2862 338.451 24.6655C339.61 25.7093 341.352 25.5635 342.34 24.339C343.33 23.1145 343.19 21.2718 342.031 20.228C332.877 11.9798 321.006 7 308.041 7C295.036 7 283.131 12.0119 273.964 20.3067C272.808 21.3534 272.672 23.1932 273.663 24.4177C274.654 25.6394 276.398 25.7822 277.554 24.7355Z" fill="black"/>
<path d="M52.2991 41.5376C51.4744 41.5376 50.6587 41.6166 49.8584 41.7734C49.4933 31.9449 41.3835 24.0615 31.4672 24.0615C22.3481 24.0615 14.6322 30.8087 13.2785 39.6785C5.92627 39.8581 0 45.8952 0 53.2899C0 60.7975 6.1078 66.9053 13.6154 66.9053H25.0063C25.8678 66.9053 26.5658 66.2073 26.5658 65.3458C26.5658 64.4844 25.8678 63.7863 25.0063 63.7863H13.6154C7.82761 63.7863 3.11898 59.0777 3.11898 53.2899C3.11898 47.5021 7.82781 42.7935 13.6154 42.7935C13.8996 42.7935 14.2003 42.8074 14.5342 42.8363L16.1145 42.9732L16.2245 41.3908C16.7778 33.4224 23.4733 27.1805 31.4672 27.1805C39.8953 27.1805 46.7523 34.0375 46.7523 42.4656C46.7523 42.853 46.7338 43.2672 46.6957 43.7315L46.4913 46.22L48.8173 45.312C49.931 44.8772 51.1024 44.6568 52.2995 44.6568C57.5829 44.6568 61.8812 48.9552 61.8812 54.2385C61.8812 59.5216 57.5829 63.82 52.2995 63.82C52.1606 63.82 48.0144 63.8117 43.8851 63.8034C39.7859 63.7951 35.7036 63.7868 35.568 63.7868C34.5974 63.7868 34.0901 63.3193 34.0597 62.3976V45.5636L35.7521 47.5737C36.3066 48.2328 37.2906 48.3172 37.9493 47.7623C38.6082 47.2077 38.6926 46.224 38.1379 45.565L34.3874 41.1097C33.915 40.5485 33.2361 40.2266 32.5247 40.2266C31.8134 40.2266 31.1345 40.5485 30.6623 41.1097L26.9118 45.565C26.3571 46.224 26.4415 47.2077 27.1004 47.7623C27.393 48.0086 27.7494 48.1288 28.1039 48.1288C28.5483 48.1288 28.9893 47.94 29.2976 47.5737L30.9405 45.622V62.4127C30.9405 64.2188 32.1729 66.9055 35.5678 66.9055C35.7034 66.9055 39.7826 66.9138 43.8785 66.922C48.0109 66.9305 52.1602 66.9388 52.2993 66.9388C59.3027 66.9388 65 61.2415 65 54.2383C65 47.2349 59.3025 41.5376 52.2991 41.5376Z" fill="#000002"/>
</g>
<defs>
<clipPath id="clip0_779_114">
<rect width="343" height="89" fill="white"/>
</clipPath>
</defs>
</svg>
